<svg width="140" height="224" viewBox="0 0 140 224" fill="none" xmlns="http://www.w3.org/2000/svg">
<g clip-path="url(#clip0_579_5642)">
<path d="M1.03884 148.81C0.833041 148.81 0.666504 148.672 0.666504 148.502V61.9151C0.666504 40.126 22.147 22.3994 48.5504 22.3994H129.4C129.605 22.3994 129.772 22.5368 129.772 22.7067C129.772 22.8765 129.605 31.3103 129.4 31.3103L48.5504 23.014C22.5579 23.014 1.41118 40.465 1.41118 61.9151V148.502C1.41118 148.672 1.24465 148.81 1.03884 148.81Z" fill="#3F3D56"/>
<path d="M129.683 0C129.889 0 130.055 0.137433 130.055 0.30727V86.8945C130.055 108.684 108.575 126.41 82.1712 126.41H1.32205C1.11624 126.41 0.949707 126.273 0.949707 126.103C0.949707 125.933 1.11624 125.796 1.32205 125.796H82.1712C108.164 125.796 129.31 108.345 129.31 86.8945V0.30727C129.31 0.137433 129.477 0 129.683 0Z" fill="#3F3D56"/>
<path d="M92.1831 82.1342C92.1831 80.8064 92.8234 79.5071 94.0263 78.54L110.987 64.9058C111.429 63.5161 112.275 62.2165 113.434 61.145C114.835 59.8151 116.554 58.8504 118.275 58.4291C120.026 58 121.573 58.1821 122.632 58.9416C124.792 60.4908 124.18 64.0016 121.268 66.7665C120.146 67.862 118.705 68.734 117.1 69.2889L101.704 82.3859L110.179 92.9856C111.821 94.5648 112.184 96.7511 111.115 98.6752C110.082 100.534 107.922 101.692 105.478 101.697C102.864 101.703 100.549 100.411 99.5801 98.4072L92.6191 84.0012C92.3256 83.3939 92.1831 82.7607 92.1831 82.1342Z" fill="#FFB6B6"/>
<path d="M106.411 69.7192C113.814 69.7192 119.815 64.7667 119.815 58.6574C119.815 52.5482 113.814 47.5957 106.411 47.5957C99.0081 47.5957 93.0068 52.5482 93.0068 58.6574C93.0068 64.7667 99.0081 69.7192 106.411 69.7192Z" fill="#3F3D56"/>
<path d="M113.393 88.2612L103.416 94.5375L116.073 101.712L122.425 90.4764L113.393 88.2612Z" fill="#FFB6B6"/>
<path d="M118.835 93.6612C124.668 93.6612 129.397 89.7588 129.397 84.9449C129.397 80.1309 124.668 76.2285 118.835 76.2285C113.001 76.2285 108.272 80.1309 108.272 84.9449C108.272 89.7588 113.001 93.6612 118.835 93.6612Z" fill="#FFB6B6"/>
<path d="M119.656 94.7122C119.656 94.7122 122.036 88.4246 120.498 87.2362C118.96 86.0478 119.009 87.2766 119.009 87.2766L120.96 81.2177C120.96 81.2177 120.03 77.6973 113.873 77.2131C113.873 77.2131 116.06 73.789 119.239 74.354C122.419 74.9189 122.62 75.5647 123.97 75.3472C125.321 75.1296 128.119 77.1521 128.119 77.1521C128.119 77.1521 129.553 76.1868 129.39 77.378C129.228 78.5692 130.751 80.5164 130.751 80.5164C130.751 80.5164 131.619 80.0701 131.38 81.3198C131.141 82.5695 132.263 83.2265 132.263 83.2265C132.263 83.2265 130.778 84.0181 131.254 84.6426C131.731 85.2671 133.636 85.7581 132.916 86.3927C132.196 87.0273 132.736 88.496 130.299 90.0456C127.862 91.5951 119.656 94.7122 119.656 94.7122Z" fill="#2F2E41"/>
<path d="M125.914 208.327L125.825 208.251L100.892 186.873C98.4787 184.804 97.3104 181.98 97.6864 179.125L98.987 169.248L111.614 171.142L112.097 177.369L133.306 205.758L125.914 208.327Z" fill="#FFB6B6"/>
<path d="M128.944 223.745C128.541 223.745 128.144 223.661 127.781 223.495C126.904 223.092 126.419 222.271 126.575 221.453L127.442 216.924L122.967 208.921L124.147 205.999L130.904 205.69L133.157 203.831L135.679 204.193C137.188 204.41 138.444 205.183 139.126 206.315C139.807 207.447 139.795 208.74 139.092 209.863L131.082 222.671C130.781 223.152 130.27 223.503 129.642 223.659C129.412 223.717 129.177 223.745 128.944 223.745Z" fill="#2F2E41"/>
<path d="M116.278 148.534L111.438 173.73L87.9802 182.948L84.2568 158.366L116.278 148.534Z" fill="#2F2E41"/>
<path d="M102.829 200.952L102.74 200.876L77.807 179.499C75.3937 177.43 74.2255 174.606 74.6014 171.75L75.9021 161.873L88.5293 163.768L89.0122 169.995L110.221 198.384L102.829 200.952Z" fill="#FFB6B6"/>
<path d="M105.859 216.371C105.456 216.371 105.059 216.286 104.696 216.12C103.819 215.718 103.334 214.897 103.49 214.078L104.357 209.549L99.8818 201.547L101.062 198.625L107.82 198.315L110.072 196.457L112.594 196.819C114.103 197.035 115.359 197.809 116.041 198.941C116.722 200.073 116.71 201.366 116.007 202.489L107.997 215.297C107.696 215.777 107.185 216.128 106.557 216.285C106.327 216.342 106.092 216.371 105.859 216.371Z" fill="#2F2E41"/>
<path d="M89.5957 140.093L86.9755 145.975L75.209 161.834C74.8632 162.3 74.8075 162.857 75.0562 163.363C75.305 163.869 75.8151 164.237 76.4558 164.372L102.424 169.868L114.446 155.936C117.875 151.962 119.649 147.097 119.449 142.222L89.5957 140.093Z" fill="#2F2E41"/>
<path d="M116.398 146.076H86.5986L86.6154 145.909L90.3777 108.276C90.8707 103.344 93.9614 98.8765 98.8571 96.0188L98.9088 95.9888L119.278 96.6113L114.855 130.53L120.736 140.3C121.487 141.548 121.404 143 120.515 144.184C119.625 145.369 118.086 146.076 116.398 146.076Z" fill="#6C63FF"/>
<path d="M108.248 103.559C106.548 103.56 104.889 102.99 103.664 101.922L90.7436 90.6589C89.0444 89.1778 88.5979 87.0176 89.6058 85.1554L99.259 67.3133C99.0474 65.8874 99.2514 64.4218 99.8496 63.0724C100.555 61.4097 101.721 59.9889 103.131 59.0725C104.566 58.1396 106.085 57.8365 107.409 58.22C110.11 59.0008 111.114 62.4492 109.646 65.9069C109.094 67.2665 108.145 68.5166 106.902 69.5221L98.4616 86.3875L111.084 93.6518C113.316 94.6183 114.634 96.5385 114.502 98.6531C114.374 100.696 112.886 102.43 110.617 103.18C109.845 103.436 109.042 103.559 108.248 103.559Z" fill="#FFB6B6"/>
<path d="M14.916 70.2676C18.1787 73.4914 19.4451 77.7562 20.3155 81.8946C20.6337 83.4074 20.9121 84.9259 21.1505 86.4487C22.0405 92.1328 22.3398 98.0656 19.9344 103.442C19.3252 104.804 18.7077 106.638 20.1616 107.455C21.3165 108.104 23.006 107.43 23.6348 106.401C24.2636 105.371 24.1385 104.151 23.9984 103.004C22.468 104.361 22.9456 106.872 24.9059 107.777C26.8663 108.682 29.7095 107.702 30.3085 105.916C30.6206 107.822 32.887 109.365 35.214 109.257C37.5409 109.148 39.5819 107.403 39.6316 105.48C38.4251 106.538 39.0217 108.454 40.5193 109.217C42.0169 109.981 44.0131 109.766 45.5492 109.057C47.0852 108.347 48.2612 107.219 49.4033 106.113C47.8975 106.881 47.545 108.824 48.7122 109.922C49.8794 111.02 52.2597 110.984 53.378 109.852C54.2995 108.919 54.2947 107.557 53.8449 106.412C53.3952 105.267 52.5674 104.253 51.944 103.165C49.0892 98.1811 50.7707 92.2708 53.1293 87.1135C55.4878 81.9563 58.5304 76.7699 58.2756 71.2616" fill="white"/>
<path d="M14.7189 70.4304C17.1115 72.8168 18.4147 75.7716 19.2678 78.7527C20.1921 81.9827 20.7686 85.3082 21.1757 88.6077C21.5876 91.9467 21.7242 95.3459 21.1106 98.6745C20.8146 100.28 20.3364 101.854 19.6655 103.381C19.2029 104.434 18.6449 105.758 19.2164 106.855C19.8902 108.149 21.7771 108.169 22.9866 107.391C24.5991 106.355 24.4601 104.508 24.278 103.004C24.256 102.822 23.9776 102.679 23.8013 102.841C22.5429 103.998 22.5075 105.836 23.5909 107.091C24.7393 108.42 26.8702 108.661 28.573 107.933C29.5284 107.525 30.2708 106.831 30.5781 105.977H30.0396C30.4126 108.008 32.8323 109.664 35.3433 109.479C37.8015 109.298 39.8201 107.505 39.9112 105.48C39.9199 105.286 39.5952 105.169 39.4345 105.317C38.6223 106.067 38.5345 107.119 38.9875 108.028C39.4882 109.034 40.5695 109.69 41.8594 109.869C45.1777 110.332 47.6558 108.158 49.6011 106.276C49.7948 106.089 49.5456 105.763 49.2627 105.914C48.0193 106.58 47.4712 107.907 47.8616 109.078C48.2721 110.31 49.7286 111.034 51.2398 110.947C52.9391 110.85 54.1458 109.821 54.3737 108.446C54.6498 106.78 53.6166 105.296 52.7015 103.883C48.3496 97.164 52.1885 89.7485 55.2493 83.264C57.0599 79.428 58.7274 75.4349 58.5552 71.2614C58.543 70.9656 57.9845 70.9643 57.9967 71.2614C58.2827 78.1931 53.5734 84.262 51.3763 90.7422C50.3338 93.8169 49.7517 97.0979 50.5051 100.265C50.8799 101.84 50.9495 103.496 51.8636 104.901C52.7263 106.227 54.3487 107.588 53.5972 109.101C52.899 110.506 50.5622 110.959 49.1589 109.963C47.8205 109.014 48.1069 107.082 49.5446 106.312L49.2062 105.95C47.5092 107.592 46.1486 107.378 43.2998 107.359C42.0741 107.352 40.2533 109.024 39.6518 108.114C39.1412 107.342 39.0878 106.328 39.8294 105.643L39.3527 105.48C39.2718 107.279 37.4153 108.918 35.2143 109.026C32.9698 109.137 30.9096 107.659 30.5781 105.854C30.5345 105.617 30.1116 105.654 30.0396 105.854C29.4465 107.503 26.8312 108.436 24.998 107.554C23.2102 106.694 22.8286 104.424 24.1962 103.167L23.7195 103.004C23.8873 104.39 24.1002 106.217 22.5022 107.116C21.896 107.458 21.0772 107.627 20.4061 107.31C19.752 107 20.5787 106.102 20.587 105.516C20.6058 104.197 20.3731 103.226 20.8094 101.981C21.3307 100.494 21.666 98.9653 21.8627 97.4262C22.2642 94.2852 22.0736 91.1114 21.6532 87.9789C21.236 84.8693 20.6897 81.7408 19.8242 78.6927C18.9481 75.607 17.5875 72.5718 15.1138 70.1045C14.8845 69.8758 14.4913 70.2034 14.7189 70.4304Z" fill="#3F3D56"/>
<path d="M36.5976 74.1989C25.2259 74.1989 13.1401 72.6374 13.1401 69.7435C13.1401 66.8496 25.2259 65.2881 36.5976 65.2881C47.9692 65.2881 60.055 66.8496 60.055 69.7435C60.055 72.6374 47.9692 74.1989 36.5976 74.1989ZM36.5976 65.9026C23.2126 65.9026 13.8848 67.9269 13.8848 69.7435C13.8848 71.5601 23.2126 73.5844 36.5976 73.5844C49.9826 73.5844 59.3104 71.5601 59.3104 69.7435C59.3104 67.9269 49.9826 65.9026 36.5976 65.9026Z" fill="#3F3D56"/>
<path d="M10.5628 78.5155C10.446 78.5155 10.329 78.5101 10.2122 78.499L2.97887 77.8106C1.45061 77.6651 0.270317 76.5983 0.233228 75.3287L0.000879855 67.3817C-0.0202095 66.6517 0.338678 65.9474 0.98518 65.449C1.63205 64.9506 2.50908 64.7039 3.38939 64.7711L14.2414 65.6041C15.4657 65.6983 16.5082 66.381 16.8973 67.3436L18.6408 71.6604C19.0437 72.6584 18.6532 73.778 17.6692 74.4462L12.5394 77.9318C11.9834 78.3096 11.2784 78.5155 10.5628 78.5155Z" fill="#3F3D56"/>
</g>
<defs>
<clipPath id="clip0_579_5642">
<rect width="140" height="224" fill="white"/>
</clipPath>
</defs>
</svg>
